<?xml version="1.0" encoding="utf-8"?>
<!-- Generator: Adobe Illustrator 19.0.1, SVG Export Plug-In . SVG Version: 6.00 Build 0)  -->
<svg version="1.1" id="Слой_1" xmlns="http://www.w3.org/2000/svg" xmlns:xlink="http://www.w3.org/1999/xlink" x="0px" y="0px"
	 viewBox="0 0 217.3 63.3" style="enable-background:new 0 0 217.3 63.3;" xml:space="preserve">
<style type="text/css">
	.st0{fill:#FFFFFF;}
	.st1{fill:#FF808C;}
</style>
<path class="st0" d="M194.9,59.9c0,1.9-1.6,3.4-3.5,3.4l0,0c-1.9,0-3.5-1.6-3.5-3.5l0,0c0-1.9,1.6-3.5,3.5-3.5l0,0
	c1.9,0,3.5,1.5,3.5,3.4l0,0c0-1.9,1.6-3.4,3.5-3.4l0,0c1.5,0,2.8,1,3.3,2.3l0,0c-0.1-1.4,0.7-2.8,2-3.4l0,0c1.4-0.6,2.9-0.3,3.9,0.6
	l0,0c-0.7-1.2-0.7-2.8,0.3-3.9l0,0c0,0,0,0,0,0l0,0c0.9-1.2,2.4-1.6,3.7-1.2l0,0c-1.2-0.8-1.8-2.2-1.5-3.6l0,0
	c0.3-1.7,1.8-2.8,3.4-2.8l0,0c-1.8-0.2-3.2-1.7-3.2-3.5l0,0c0-1.9,1.6-3.5,3.5-3.5l0,0c-1.9,0-3.5-1.6-3.5-3.5l0,0
	c0-1.9,1.6-3.5,3.5-3.5l0,0c-1.9,0-3.5-1.6-3.5-3.5l0,0c0-1.9,1.6-3.5,3.5-3.5l0,0c-1.9,0-3.5-1.6-3.5-3.5l0,0c0-1.6,1.1-3,2.6-3.4
	l0,0c-1.4,0-2.8-0.8-3.3-2.3l0,0c-0.5-1.4-0.1-2.9,0.9-3.8l0,0c-1.3,0.6-2.8,0.5-3.9-0.5l0,0c-1.1-1-1.4-2.5-0.9-3.8l0,0
	c-0.8,1.1-2.3,1.7-3.7,1.3l0,0c-0.5-0.1-1-0.4-1.4-0.7l0,0C200,6.9,199.5,7,199,7l0,0c-1.9,0-3.5-1.6-3.5-3.5l0,0
	c0-1.9,1.6-3.5,3.5-3.5l0,0c0.9,0,1.7,0.3,2.3,0.8l0,0c0.7-0.3,1.6-0.5,2.4-0.2l0,0c1.9,0.5,3,2.4,2.5,4.3l0,0
	c0,0.1-0.1,0.2-0.1,0.3l0,0c0.1-0.1,0.1-0.2,0.2-0.3l0,0c1.3-1.4,3.5-1.6,4.9-0.3l0,0c1.4,1.3,1.6,3.5,0.3,5l0,0
	c-0.1,0.1-0.2,0.2-0.2,0.2l0,0c0.1,0,0.2-0.1,0.3-0.1l0,0c1.8-0.7,3.8,0.2,4.5,2l0,0c0.7,1.8-0.2,3.8-2,4.5l0,0
	c-0.1,0-0.2,0.1-0.3,0.1l0,0c0,0,0,0,0.1,0l0,0c1.9,0,3.5,1.6,3.5,3.5l0,0c0,1.9-1.6,3.5-3.5,3.5l0,0c1.9,0,3.5,1.6,3.5,3.5l0,0
	c0,1.9-1.6,3.5-3.5,3.5l0,0c1.9,0,3.5,1.6,3.5,3.5l0,0c0,1.9-1.6,3.5-3.5,3.5l0,0c1.9,0,3.5,1.6,3.5,3.5l0,0c0,1.9-1.5,3.5-3.4,3.5
	l0,0c0.1,0,0.2,0,0.3,0l0,0c1.9,0.4,3.1,2.2,2.8,4.1l0,0c-0.4,1.9-2.2,3.1-4.1,2.8l0,0c-0.1,0-0.2,0-0.3-0.1l0,0
	c0.1,0.1,0.2,0.1,0.3,0.2l0,0c1.5,1.2,1.8,3.4,0.6,4.9l0,0c-1.2,1.5-3.4,1.8-4.9,0.6l0,0c-0.1-0.1-0.2-0.2-0.3-0.2l0,0
	c0.1,0.1,0.1,0.2,0.2,0.3l0,0c0.8,1.8,0,3.8-1.7,4.7l0,0c-1.8,0.8-3.8,0-4.6-1.7l0,0c-0.1-0.1-0.1-0.2-0.1-0.3l0,0
	c0,0.1,0,0.1,0,0.2l0,0c0,1.9-1.6,3.5-3.5,3.5l0,0C196.5,63.3,194.9,61.8,194.9,59.9z M180.9,59.8c0-1.9,1.6-3.5,3.5-3.5l0,0
	c1.9,0,3.5,1.6,3.5,3.5l0,0c0,1.9-1.6,3.5-3.5,3.5l0,0C182.4,63.3,180.9,61.8,180.9,59.8z M173.9,59.8c0-1.9,1.6-3.5,3.5-3.5l0,0
	c1.9,0,3.5,1.6,3.5,3.5l0,0c0,1.9-1.6,3.5-3.5,3.5l0,0C175.4,63.3,173.9,61.8,173.9,59.8z M166.9,59.8c0-1.9,1.6-3.5,3.5-3.5l0,0
	c1.9,0,3.5,1.6,3.5,3.5l0,0c0,1.9-1.6,3.5-3.5,3.5l0,0C168.4,63.3,166.9,61.8,166.9,59.8z M159.9,59.8c0-1.9,1.6-3.5,3.5-3.5l0,0
	c1.9,0,3.5,1.6,3.5,3.5l0,0c0,1.9-1.6,3.5-3.5,3.5l0,0C161.4,63.3,159.9,61.8,159.9,59.8z M152.9,59.8c0-1.9,1.6-3.5,3.5-3.5l0,0
	c1.9,0,3.5,1.6,3.5,3.5l0,0c0,1.9-1.6,3.5-3.5,3.5l0,0C154.4,63.3,152.9,61.8,152.9,59.8z M145.9,59.8c0-1.9,1.6-3.5,3.5-3.5l0,0
	c1.9,0,3.5,1.6,3.5,3.5l0,0c0,1.9-1.6,3.5-3.5,3.5l0,0C147.4,63.3,145.9,61.8,145.9,59.8z M138.9,59.8c0-1.9,1.6-3.5,3.5-3.5l0,0
	c1.9,0,3.5,1.6,3.5,3.5l0,0c0,1.9-1.6,3.5-3.5,3.5l0,0C140.4,63.3,138.9,61.8,138.9,59.8z M131.9,59.8c0-1.9,1.6-3.5,3.5-3.5l0,0
	c1.9,0,3.5,1.6,3.5,3.5l0,0c0,1.9-1.6,3.5-3.5,3.5l0,0C133.4,63.3,131.9,61.8,131.9,59.8z M124.9,59.8c0-1.9,1.6-3.5,3.5-3.5l0,0
	c1.9,0,3.5,1.6,3.5,3.5l0,0c0,1.9-1.6,3.5-3.5,3.5l0,0C126.4,63.3,124.9,61.8,124.9,59.8z M117.9,59.8c0-1.9,1.6-3.5,3.5-3.5l0,0
	c1.9,0,3.5,1.6,3.5,3.5l0,0c0,1.9-1.6,3.5-3.5,3.5l0,0C119.4,63.3,117.9,61.8,117.9,59.8z M110.9,59.8c0-1.9,1.6-3.5,3.5-3.5l0,0
	c1.9,0,3.5,1.6,3.5,3.5l0,0c0,1.9-1.6,3.5-3.5,3.5l0,0C112.4,63.3,110.9,61.8,110.9,59.8z M103.9,59.8c0-1.9,1.6-3.5,3.5-3.5l0,0
	c1.9,0,3.5,1.6,3.5,3.5l0,0c0,1.9-1.6,3.5-3.5,3.5l0,0C105.4,63.3,103.9,61.8,103.9,59.8z M96.9,59.8c0-1.9,1.6-3.5,3.5-3.5l0,0
	c1.9,0,3.5,1.6,3.5,3.5l0,0c0,1.9-1.6,3.5-3.5,3.5l0,0C98.4,63.3,96.9,61.8,96.9,59.8z M89.9,59.8c0-1.9,1.6-3.5,3.5-3.5l0,0
	c1.9,0,3.5,1.6,3.5,3.5l0,0c0,1.9-1.6,3.5-3.5,3.5l0,0C91.4,63.3,89.9,61.8,89.9,59.8z M82.9,59.8c0-1.9,1.6-3.5,3.5-3.5l0,0
	c1.9,0,3.5,1.6,3.5,3.5l0,0c0,1.9-1.6,3.5-3.5,3.5l0,0C84.4,63.3,82.9,61.8,82.9,59.8z M75.9,59.8c0-1.9,1.6-3.5,3.5-3.5l0,0
	c1.9,0,3.5,1.6,3.5,3.5l0,0c0,1.9-1.6,3.5-3.5,3.5l0,0C77.4,63.3,75.9,61.8,75.9,59.8z M68.9,59.8c0-1.9,1.6-3.5,3.5-3.5l0,0
	c1.9,0,3.5,1.6,3.5,3.5l0,0c0,1.9-1.6,3.5-3.5,3.5l0,0C70.4,63.3,68.9,61.8,68.9,59.8z M61.9,59.8c0-1.9,1.6-3.5,3.5-3.5l0,0
	c1.9,0,3.5,1.6,3.5,3.5l0,0c0,1.9-1.6,3.5-3.5,3.5l0,0C63.4,63.3,61.9,61.8,61.9,59.8z M54.9,59.8c0-1.9,1.6-3.5,3.5-3.5l0,0
	c1.9,0,3.5,1.6,3.5,3.5l0,0c0,1.9-1.6,3.5-3.5,3.5l0,0C56.4,63.3,54.9,61.8,54.9,59.8z M47.9,59.8c0-1.9,1.6-3.5,3.5-3.5l0,0
	c1.9,0,3.5,1.6,3.5,3.5l0,0c0,1.9-1.6,3.5-3.5,3.5l0,0C49.4,63.3,47.9,61.8,47.9,59.8z M40.9,59.8c0-1.9,1.6-3.5,3.5-3.5l0,0
	c1.9,0,3.5,1.6,3.5,3.5l0,0c0,1.9-1.6,3.5-3.5,3.5l0,0C42.4,63.3,40.9,61.8,40.9,59.8z M33.9,59.8c0-1.9,1.6-3.5,3.5-3.5l0,0
	c1.9,0,3.5,1.6,3.5,3.5l0,0c0,1.9-1.6,3.5-3.5,3.5l0,0C35.4,63.3,33.9,61.8,33.9,59.8z M26.9,59.8c0-1.9,1.6-3.5,3.5-3.5l0,0
	c1.9,0,3.5,1.6,3.5,3.5l0,0c0,1.9-1.6,3.5-3.5,3.5l0,0C28.4,63.3,26.9,61.8,26.9,59.8z M19.9,59.9c0,0.1,0,0.2,0,0.3l0,0
	c-0.2,1.9-2,3.3-3.9,3l0,0c-1.9-0.3-3.3-2-3-3.9l0,0c0-0.1,0-0.2,0.1-0.3l0,0c0,0.1-0.1,0.2-0.2,0.3l0,0c-1.1,1.6-3.3,2-4.9,0.9l0,0
	c-1.6-1.1-2-3.3-0.9-4.9l0,0c0.1-0.1,0.1-0.2,0.2-0.3l0,0C7.1,55,7,55.1,6.9,55.2l0,0c-1.7,0.9-3.8,0.3-4.7-1.4l0,0
	C1.3,52,1.9,49.9,3.6,49l0,0c0.1,0,0.2-0.1,0.3-0.2l0,0c-0.1,0-0.2,0-0.3,0l0,0c-1.9,0-3.5-1.5-3.6-3.4l0,0
	c-0.1-1.9,1.5-3.5,3.4-3.6l0,0c1.9,0,3.5,1.5,3.6,3.4l0,0l0,0l0,0c0,1.5-0.8,2.8-2.1,3.3l0,0c1.4-0.2,2.8,0.5,3.5,1.8l0,0l0,0l0,0
	c0.7,1.3,0.5,2.8-0.4,3.9l0,0c1.2-0.8,2.7-0.8,4,0l0,0c1.2,0.8,1.7,2.3,1.4,3.7l0,0c0.7-1.2,2-2,3.5-1.8l0,0l0,0l0,0
	c1.7,0.2,3,1.7,3.1,3.4l0,0c0.1-1.8,1.6-3.3,3.5-3.3l0,0c1.9,0,3.5,1.6,3.5,3.5l0,0c0,1.9-1.6,3.5-3.5,3.5l0,0
	C21.5,63.3,19.9,61.8,19.9,59.9z M0,38.4c0-1.9,1.6-3.5,3.5-3.5l0,0c1.9,0,3.5,1.6,3.5,3.5l0,0c0,1.9-1.6,3.5-3.5,3.5l0,0
	C1.6,41.9,0,40.3,0,38.4z M0,31.4c0-1.9,1.6-3.5,3.5-3.5l0,0c1.9,0,3.5,1.6,3.5,3.5l0,0c0,1.9-1.6,3.5-3.5,3.5l0,0
	C1.6,34.9,0,33.3,0,31.4z M0,24.4c0-1.9,1.6-3.5,3.5-3.5l0,0c1.9,0,3.5,1.6,3.5,3.5l0,0c0,1.9-1.6,3.5-3.5,3.5l0,0
	C1.6,27.9,0,26.3,0,24.4z M3.3,20.9c-1.9-0.1-3.4-1.8-3.3-3.7v0c0.1-1.9,1.8-3.4,3.7-3.3l0,0c0.1,0,0.2,0,0.4,0l0,0
	c-0.1,0-0.2-0.1-0.3-0.2l0,0c-1.7-1-2.2-3.1-1.2-4.8l0,0c1-1.7,3.1-2.2,4.8-1.2l0,0c0.1,0.1,0.2,0.1,0.3,0.2l0,0
	C7.6,7.8,7.5,7.7,7.4,7.6l0,0C6.4,6,6.9,3.9,8.5,2.8v0c1.6-1,3.8-0.6,4.8,1.1l0,0c0.1,0.1,0.1,0.2,0.2,0.3l0,0c0-0.1,0-0.2-0.1-0.3
	l0,0c-0.2-1.9,1.3-3.6,3.2-3.8v0c1.9-0.2,3.6,1.3,3.8,3.2l0,0c0,0.1,0,0.1,0,0.2l0,0C20.5,1.5,22,0,24,0l0,0c1.9,0,3.5,1.6,3.5,3.5
	l0,0C27.5,5.4,25.9,7,24,7l0,0c-1.9,0-3.5-1.5-3.5-3.4l0,0c0,1.8-1.4,3.3-3.2,3.5l0,0c-1.5,0.1-2.8-0.7-3.4-1.9l0,0
	c0.3,1.4-0.3,2.8-1.6,3.6l0,0C11,9.5,9.5,9.4,8.3,8.6l0,0c0.9,1.1,1,2.7,0.2,3.9l0,0c-0.8,1.3-2.2,1.9-3.6,1.7l0,0
	c1.3,0.6,2.1,1.9,2,3.4l0,0c-0.1,1.9-1.6,3.3-3.5,3.3l0,0C3.5,20.9,3.4,20.9,3.3,20.9z M188.5,3.5c0-1.9,1.6-3.5,3.5-3.5l0,0
	c1.9,0,3.5,1.6,3.5,3.5l0,0c0,1.9-1.6,3.5-3.5,3.5l0,0C190,7,188.5,5.4,188.5,3.5z M181.5,3.5c0-1.9,1.6-3.5,3.5-3.5l0,0
	c1.9,0,3.5,1.6,3.5,3.5l0,0c0,1.9-1.6,3.5-3.5,3.5l0,0C183,7,181.5,5.4,181.5,3.5z M174.5,3.5c0-1.9,1.6-3.5,3.5-3.5l0,0
	c1.9,0,3.5,1.6,3.5,3.5l0,0c0,1.9-1.6,3.5-3.5,3.5l0,0C176,7,174.5,5.4,174.5,3.5z M167.5,3.5c0-1.9,1.6-3.5,3.5-3.5l0,0
	c1.9,0,3.5,1.6,3.5,3.5l0,0c0,1.9-1.6,3.5-3.5,3.5l0,0C169,7,167.5,5.4,167.5,3.5z M160.5,3.5c0-1.9,1.6-3.5,3.5-3.5l0,0
	c1.9,0,3.5,1.6,3.5,3.5l0,0c0,1.9-1.6,3.5-3.5,3.5l0,0C162,7,160.5,5.4,160.5,3.5z M153.5,3.5c0-1.9,1.6-3.5,3.5-3.5l0,0
	c1.9,0,3.5,1.6,3.5,3.5l0,0c0,1.9-1.6,3.5-3.5,3.5l0,0C155,7,153.5,5.4,153.5,3.5z M146.5,3.5c0-1.9,1.6-3.5,3.5-3.5l0,0
	c1.9,0,3.5,1.6,3.5,3.5l0,0c0,1.9-1.6,3.5-3.5,3.5l0,0C148,7,146.5,5.4,146.5,3.5z M139.5,3.5c0-1.9,1.6-3.5,3.5-3.5l0,0
	c1.9,0,3.5,1.6,3.5,3.5l0,0c0,1.9-1.6,3.5-3.5,3.5l0,0C141,7,139.5,5.4,139.5,3.5z M132.5,3.5c0-1.9,1.6-3.5,3.5-3.5l0,0
	c1.9,0,3.5,1.6,3.5,3.5l0,0c0,1.9-1.6,3.5-3.5,3.5l0,0C134,7,132.5,5.4,132.5,3.5z M125.5,3.5c0-1.9,1.6-3.5,3.5-3.5l0,0
	c1.9,0,3.5,1.6,3.5,3.5l0,0c0,1.9-1.6,3.5-3.5,3.5l0,0C127,7,125.5,5.4,125.5,3.5z M118.5,3.5c0-1.9,1.6-3.5,3.5-3.5l0,0
	c1.9,0,3.5,1.6,3.5,3.5l0,0c0,1.9-1.6,3.5-3.5,3.5l0,0C120,7,118.5,5.4,118.5,3.5z M111.5,3.5c0-1.9,1.6-3.5,3.5-3.5l0,0
	c1.9,0,3.5,1.6,3.5,3.5l0,0c0,1.9-1.6,3.5-3.5,3.5l0,0C113,7,111.5,5.4,111.5,3.5z M104.5,3.5c0-1.9,1.6-3.5,3.5-3.5l0,0
	c1.9,0,3.5,1.6,3.5,3.5l0,0c0,1.9-1.6,3.5-3.5,3.5l0,0C106,7,104.5,5.4,104.5,3.5z M97.5,3.5C97.5,1.6,99,0,101,0l0,0
	c1.9,0,3.5,1.6,3.5,3.5l0,0c0,1.9-1.6,3.5-3.5,3.5l0,0C99,7,97.5,5.4,97.5,3.5z M90.5,3.5C90.5,1.6,92,0,94,0l0,0
	c1.9,0,3.5,1.6,3.5,3.5l0,0C97.5,5.4,95.9,7,94,7l0,0C92,7,90.5,5.4,90.5,3.5z M83.5,3.5C83.5,1.6,85,0,87,0l0,0
	c1.9,0,3.5,1.6,3.5,3.5l0,0C90.5,5.4,88.9,7,87,7l0,0C85,7,83.5,5.4,83.5,3.5z M76.5,3.5C76.5,1.6,78,0,80,0l0,0
	c1.9,0,3.5,1.6,3.5,3.5l0,0C83.5,5.4,81.9,7,80,7l0,0C78,7,76.5,5.4,76.5,3.5z M69.5,3.5C69.5,1.6,71,0,73,0l0,0
	c1.9,0,3.5,1.6,3.5,3.5l0,0C76.5,5.4,74.9,7,73,7l0,0C71,7,69.5,5.4,69.5,3.5z M62.5,3.5C62.5,1.6,64,0,66,0l0,0
	c1.9,0,3.5,1.6,3.5,3.5l0,0C69.5,5.4,67.9,7,66,7l0,0C64,7,62.5,5.4,62.5,3.5z M55.5,3.5C55.5,1.6,57,0,59,0l0,0
	c1.9,0,3.5,1.6,3.5,3.5l0,0C62.5,5.4,60.9,7,59,7l0,0C57,7,55.5,5.4,55.5,3.5z M48.5,3.5C48.5,1.6,50,0,52,0l0,0
	c1.9,0,3.5,1.6,3.5,3.5l0,0C55.5,5.4,53.9,7,52,7l0,0C50,7,48.5,5.4,48.5,3.5z M41.5,3.5C41.5,1.6,43,0,45,0l0,0
	c1.9,0,3.5,1.6,3.5,3.5l0,0C48.5,5.4,46.9,7,45,7l0,0C43,7,41.5,5.4,41.5,3.5z M34.5,3.5C34.5,1.6,36,0,38,0l0,0
	c1.9,0,3.5,1.6,3.5,3.5l0,0C41.5,5.4,39.9,7,38,7l0,0C36,7,34.5,5.4,34.5,3.5z M27.5,3.5C27.5,1.6,29,0,31,0l0,0
	c1.9,0,3.5,1.6,3.5,3.5l0,0C34.5,5.4,32.9,7,31,7l0,0C29,7,27.5,5.4,27.5,3.5z"/>
<path class="st1" d="M199,3.5h-90.3H18.3c-8.2,0-14.8,6.6-14.8,14.8V45c0,8.2,6.6,14.8,14.8,14.8h90.3H199c8.2,0,14.8-6.6,14.8-14.8
	V18.3C213.8,10.1,207.1,3.5,199,3.5z"/>
</svg>
