<?xml version="1.0" encoding="utf-8"?>
<!-- Generator: Adobe Illustrator 19.0.1, SVG Export Plug-In . SVG Version: 6.00 Build 0)  -->
<svg version="1.1" id="Слой_1" xmlns="http://www.w3.org/2000/svg" xmlns:xlink="http://www.w3.org/1999/xlink" x="0px" y="0px"
	 viewBox="-346 2437.2 126.7 126.7" style="enable-background:new -346 2437.2 126.7 126.7;" xml:space="preserve">
<style type="text/css">
	.st0{fill:#29ABE2;stroke:#FFFFFF;stroke-width:1.5;stroke-miterlimit:10;}
	.st1{opacity:0.18;fill:#000002;enable-background:new    ;}
	.st2{fill:#FF9797;stroke:#FFFFFF;stroke-width:0.8;stroke-miterlimit:10;}
	.st3{fill:none;stroke:#80FF8C;stroke-miterlimit:10;}
</style>
<g>
	<circle class="st0" cx="-282.5" cy="2500.4" r="62.5"/>
	<g>
		<path class="st1" d="M-252.5,2494.9v3.7l-9.5,17.5l-3.9,1.2l-19,0.7l-14.6-0.2l2.3,3l-5.4,3.9l-3,6.5l32.1,32.1h0.3
			c22.1-3.2,41.1-18.1,49.5-38.9l0.2-0.4L-252.5,2494.9z"/>
		<path class="st2" d="M-259.8,2514.4l8.1-15c0.7-1.2,0.7-2.7,0.1-3.9c-0.7-1.3-2-2.1-3.5-2.1h-49c-0.6,0-1,0.4-1,1l0,0
			c0,0.6,0.4,1,1,1h49.1c0.7,0,1.3,0.4,1.7,1c0.4,0.6,0.4,1.3,0,1.9l-8.2,15.1c-1.2,2.1-3.4,3.5-5.8,3.5h-30.8c-0.1,0-0.3,0-0.4,0
			l-0.7-0.1c-1.4-0.4-2.4-1.5-2.8-2.9l-4.3-18.4c-0.9-3.9-4-7-7.9-7.9l-2.2-0.5c-0.9-0.2-1.7,0.3-1.9,1.2l0,0
			c-0.1,0.2,0.1,0.4,0.3,0.5l3.4,0.8c3.2,0.7,5.7,3.2,6.4,6.4l4.3,18.4c0.5,2,2,3.7,3.9,4.3c0.5,0.8,1.1,1.4,1.7,1.9
			c-2.1,0.8-3.9,2.3-5.1,4.3c-2.1,0.3-3.5,2.3-3.1,4.5c0.3,1.4,1.4,2.5,2.8,2.8c2.5,0.6,4.7-1.3,4.7-3.7c0-1.5-0.9-2.8-2.2-3.4
			c1.5-2.1,3.9-3.3,6.4-3.3h23.7c2.6,0,5,1.2,6.5,3.3c-1.6,0.8-2.5,2.6-2,4.5c0.4,1.3,1.5,2.4,2.9,2.6c2.4,0.5,4.5-1.4,4.5-3.7
			c0-1.9-1.3-3.4-3.2-3.7l-0.3-0.5c-1.9-2.8-5-4.5-8.4-4.5h-23.6c-0.1,0-0.2,0-0.3,0h-0.1c-0.3-0.1-1.1-0.4-1.9-1h29.6
			C-264.3,2518.9-261.3,2517.3-259.8,2514.4z"/>
		<polyline class="st3" points="-288.1,2506.4 -284.8,2509.8 -277.4,2502.4 		"/>
		<circle class="st3" cx="-282.8" cy="2506.1" r="9"/>
	</g>
</g>
</svg>
