<?xml version="1.0" encoding="utf-8"?>
<!-- Generator: Adobe Illustrator 19.0.1, SVG Export Plug-In . SVG Version: 6.00 Build 0)  -->
<svg version="1.1" id="Слой_1" xmlns="http://www.w3.org/2000/svg" xmlns:xlink="http://www.w3.org/1999/xlink" x="0px" y="0px"
	 viewBox="0 0 126.7 126.7" style="enable-background:new 0 0 126.7 126.7;" xml:space="preserve">
<style type="text/css">
	.st0{fill:#29ABE2;stroke:#FFFFFF;stroke-width:1.5;stroke-miterlimit:10;}
	.st1{opacity:0.19;}
	.st2{fill:#FF9797;stroke:#FFFFFF;stroke-miterlimit:10;}
	.st3{stroke:#FEFEFE;stroke-miterlimit:10;}
	.st4{fill:#FEFEFE;}
</style>
<g>
	<circle class="st0" cx="63.3" cy="63.3" r="62.5"/>
	<path class="st1" d="M17.5,77.3l48.8,48.8c33.3-1.5,59.8-29,59.8-62.6c0-2.3-0.1-4.5-0.4-6.7l-22.3-22.3L17.5,77.3z"/>
	<polygon class="st2" points="88.7,80.3 99.1,70.8 99.1,65.1 48.5,65.1 48.5,41.1 27.7,41.1 17.5,56.8 17.5,77.3 25.3,80.3 	"/>
	<polygon class="st0" points="29.6,44.3 21.4,56.8 29.6,56.8 45,56.8 45,44.3 	"/>
	<rect x="48.5" y="34.4" class="st2" width="54.9" height="30.7"/>
	<g>
		<circle class="st3" cx="34.9" cy="80.3" r="9.6"/>
		<circle class="st3" cx="79.1" cy="80.3" r="9.6"/>
		<circle class="st4" cx="34.9" cy="80.3" r="3.7"/>
		<circle class="st4" cx="79.1" cy="80.3" r="3.7"/>
	</g>
</g>
</svg>
