<?xml version="1.0" encoding="utf-8"?>
<!-- Generator: Adobe Illustrator 19.0.1, SVG Export Plug-In . SVG Version: 6.00 Build 0)  -->
<svg version="1.1" id="Слой_1" xmlns="http://www.w3.org/2000/svg" xmlns:xlink="http://www.w3.org/1999/xlink" x="0px" y="0px"
	 viewBox="0 0 113 113" style="enable-background:new 0 0 113 113;" xml:space="preserve">
<style type="text/css">
	.st0{fill:#29ABE2;}
	.st1{fill:#FFFFFF;}
	.st2{opacity:0.18;}
	.st3{fill:#808080;stroke:#CEDAE2;stroke-miterlimit:10;}
	.st4{fill:#FF9797;stroke:#FFFFFF;stroke-miterlimit:10;}
	.st5{fill:#9DB6C6;}
	.st6{opacity:0.1;}
</style>
<g>
	<g>
		<path class="st0" d="M56.5,112.2c-1.6,0-3-0.9-3.8-2.2c-0.8,1-2,1.7-3.4,1.7c-0.2,0-0.4,0-0.6,0c-1.6-0.2-2.8-1.3-3.4-2.7
			c-0.8,0.8-1.9,1.2-3,1.2c-0.4,0-0.8-0.1-1.2-0.2c-1.5-0.4-2.6-1.7-3-3.1c-0.7,0.5-1.6,0.8-2.5,0.8c-0.6,0-1.2-0.1-1.8-0.4
			c-1.5-0.6-2.4-2-2.6-3.5c-0.6,0.3-1.3,0.5-2,0.5c-0.8,0-1.6-0.2-2.3-0.7c-1.4-0.8-2.1-2.3-2-3.8c-0.5,0.2-1,0.3-1.5,0.3
			c-1,0-2-0.4-2.8-1c-1.2-1-1.7-2.6-1.5-4.1c-0.3,0.1-0.6,0.1-0.9,0.1c-1.2,0-2.4-0.5-3.2-1.4c-1.1-1.2-1.4-2.8-0.9-4.2
			c-0.1,0-0.2,0-0.3,0c-1.4,0-2.8-0.7-3.6-1.9c-0.9-1.3-1-3-0.3-4.3c-1.5-0.1-2.9-1-3.6-2.4c-0.7-1.4-0.5-3.1,0.3-4.3
			c-1.5-0.3-2.7-1.4-3.2-2.9c-0.5-1.5-0.1-3.1,0.9-4.2c-1.4-0.5-2.5-1.8-2.8-3.3C1.3,64.6,1.9,63,3,62.1c-1.3-0.7-2.2-2.1-2.3-3.7
			c-0.1-1.6,0.8-3,2-3.8c-1.2-0.9-1.9-2.4-1.7-4c0.2-1.6,1.2-2.9,2.5-3.5c-1.1-1-1.6-2.6-1.2-4.2c0.4-1.5,1.5-2.7,3-3.1
			c-0.9-1.2-1.2-2.8-0.6-4.3c0.6-1.5,1.9-2.5,3.4-2.7c-0.7-1.3-0.8-2.9,0-4.3c0.8-1.3,2.2-2.2,3.7-2.2c-0.5-1.4-0.4-3,0.6-4.3
			c0.8-1.1,2.1-1.7,3.4-1.7c0.2,0,0.4,0,0.6,0c-0.3-1.5,0.1-3,1.2-4.2c0.8-0.8,1.9-1.2,3-1.2c0.4,0,0.8,0.1,1.2,0.2
			c-0.1-1.5,0.5-3,1.8-3.9c0.7-0.5,1.6-0.8,2.6-0.8c0.6,0,1.2,0.1,1.7,0.4c0.1-1.5,0.9-2.9,2.3-3.7c0.6-0.3,1.3-0.5,2-0.5
			c0.8,0,1.6,0.2,2.3,0.6c0.3-1.5,1.3-2.8,2.8-3.3c0.5-0.2,1-0.3,1.5-0.3c1,0,2,0.4,2.8,1c0.5-1.4,1.7-2.6,3.2-2.9
			c0.3-0.1,0.6-0.1,0.9-0.1c1.2,0,2.4,0.5,3.2,1.4c0.7-1.3,2-2.3,3.6-2.4c0.1,0,0.2,0,0.3,0c1.5,0,2.8,0.8,3.6,1.9
			c0.8-1.1,2.1-1.9,3.6-1.9c0.1,0,0.2,0,0.3,0C62,0.9,63.3,1.8,64,3.2c0.8-0.9,2-1.4,3.2-1.4c0.3,0,0.6,0,0.9,0.1
			c1.6,0.3,2.8,1.5,3.2,2.9c0.8-0.6,1.7-1,2.8-1c0.5,0,1,0.1,1.5,0.3c1.5,0.5,2.5,1.8,2.8,3.3c0.7-0.4,1.5-0.6,2.3-0.6
			c0.7,0,1.4,0.2,2,0.5c1.4,0.8,2.2,2.2,2.3,3.7c0.5-0.2,1.1-0.4,1.7-0.4c0.9,0,1.8,0.3,2.6,0.8c1.3,0.9,1.9,2.5,1.8,3.9
			c0.4-0.1,0.8-0.2,1.2-0.2c1.1,0,2.2,0.4,3,1.2c1.1,1.1,1.6,2.7,1.2,4.2c0.2,0,0.4,0,0.6,0c1.3,0,2.6,0.6,3.4,1.7
			c1,1.3,1.2,2.9,0.6,4.3c1.5,0,3,0.8,3.7,2.2c0.8,1.4,0.7,3,0,4.3c1.5,0.2,2.8,1.2,3.4,2.7c0.6,1.5,0.3,3.1-0.6,4.3
			c1.5,0.4,2.6,1.6,3,3.1c0.4,1.5-0.1,3.1-1.2,4.2c1.4,0.6,2.4,1.9,2.5,3.5c0.2,1.6-0.5,3.1-1.7,4c1.3,0.8,2.1,2.2,2,3.8
			c-0.1,1.6-1,3-2.3,3.7c1.1,1,1.7,2.5,1.5,4.1c-0.3,1.6-1.4,2.8-2.8,3.3c1,1.1,1.4,2.7,0.9,4.2c-0.5,1.5-1.7,2.6-3.2,2.9
			c0.8,1.2,1,2.9,0.3,4.3c-0.7,1.4-2,2.3-3.6,2.4c0.6,1.3,0.6,3-0.3,4.3c-0.8,1.2-2.2,1.9-3.6,1.9c-0.1,0-0.2,0-0.3,0
			c0.4,1.4,0.2,3-0.9,4.2c-0.8,0.9-2,1.4-3.2,1.4c-0.3,0-0.6,0-0.9-0.1c0.2,1.5-0.3,3-1.5,4.1c-0.8,0.7-1.8,1-2.8,1
			c-0.5,0-1-0.1-1.5-0.3c0,1.5-0.7,3-2,3.8c-0.7,0.4-1.5,0.7-2.3,0.7c-0.7,0-1.4-0.2-2-0.5c-0.2,1.5-1.1,2.8-2.6,3.5
			c-0.6,0.3-1.2,0.4-1.8,0.4c-0.9,0-1.8-0.3-2.5-0.8c-0.4,1.4-1.5,2.7-3,3.1c-0.4,0.1-0.8,0.2-1.2,0.2c-1.1,0-2.2-0.5-3-1.2
			c-0.1,0.3-0.3,0.7-0.6,1c-0.7,0.9-1.7,1.5-2.9,1.7c-0.2,0-0.4,0-0.6,0c-1.4,0-2.6-0.6-3.4-1.7C59.5,111.4,58.1,112.2,56.5,112.2z"
			/>
		<g>
			<path class="st1" d="M60.1,1.5c0.1,0,0.2,0,0.3,0c2,0.1,3.5,1.9,3.3,3.8c0,0,0,0,0,0c0,0,0,0,0,0l0,0c0,0,0,0,0,0c0,0,0,0,0,0
				c0.4-1.7,1.9-2.9,3.5-2.9c0.2,0,0.5,0,0.8,0.1c1.9,0.4,3.2,2.3,2.8,4.3c0,0,0,0,0,0c0,0,0,0,0,0l0,0c0,0,0,0,0,0c0,0,0,0,0,0
				c0.5-1.5,1.9-2.4,3.4-2.4c0.4,0,0.8,0.1,1.2,0.2c1.9,0.7,2.8,2.7,2.1,4.6c0,0,0,0,0,0c0,0,0,0,0,0l0,0c0,0,0,0,0,0c0,0,0,0,0,0
				c0.6-1.2,1.9-1.9,3.2-1.9c0.6,0,1.1,0.1,1.7,0.4c1.8,0.9,2.4,3.1,1.5,4.9c0,0,0,0,0,0c0,0,0,0,0,0l0,0c0,0,0,0,0,0c0,0,0,0,0,0
				c0.7-1,1.8-1.5,2.9-1.5c0.7,0,1.5,0.2,2.1,0.7c1.6,1.2,2,3.4,0.8,5c0,0,0,0,0,0c0,0,0,0,0,0c0,0,0,0,0,0c0,0,0,0,0,0c0,0,0,0,0,0
				c0.7-0.7,1.6-1.1,2.6-1.1c0.9,0,1.8,0.3,2.5,1c1.4,1.4,1.5,3.7,0.1,5.1c0,0,0,0,0,0c0,0,0,0,0,0l0,0c0,0,0,0,0,0c0,0,0,0,0,0
				c0.7-0.5,1.4-0.8,2.2-0.8c1.1,0,2.1,0.5,2.8,1.4c1.2,1.6,0.9,3.8-0.6,5.1l0,0h0l0,0c0.6-0.3,1.2-0.5,1.8-0.5
				c1.2,0,2.5,0.6,3.1,1.8c1,1.7,0.4,3.9-1.3,4.9c0.4-0.2,0.9-0.3,1.3-0.3c1.4,0,2.8,0.9,3.3,2.3c0.7,1.8-0.1,3.9-2,4.7c0,0,0,0,0,0
				c0,0,0,0,0,0l0,0c0,0,0,0,0,0c0,0,0,0,0,0c0.3-0.1,0.6-0.1,0.9-0.1c1.6,0,3.1,1.1,3.5,2.7c0.5,1.9-0.7,3.9-2.6,4.4c0,0,0,0,0,0
				c0,0,0,0,0,0l0,0c0,0,0,0,0,0c0,0,0,0,0,0c0.1,0,0.3,0,0.4,0c1.8,0,3.4,1.4,3.6,3.2c0.2,2-1.2,3.7-3.2,4c0,0,0,0,0,0c0,0,0,0,0,0
				c0,0,0,0,0,0c0,0,0,0,0,0l0,0c0,0,0,0,0,0c0,0,0,0,0,0c0,0,0,0,0,0c0,0,0,0,0,0c2,0.1,3.5,1.7,3.5,3.7c-0.1,1.9-1.7,3.5-3.6,3.5
				c0,0-0.1,0-0.1,0c0,0,0,0,0,0c0,0,0,0,0,0v0c0,0,0,0,0,0c0,0,0,0,0,0c2,0.3,3.3,2.2,2.9,4.2c-0.3,1.7-1.8,3-3.5,3
				c-0.2,0-0.4,0-0.6-0.1l0,0l0,0c0,0,0,0,0,0c1.9,0.6,2.9,2.6,2.3,4.5c-0.5,1.5-1.9,2.5-3.4,2.5c-0.4,0-0.7-0.1-1.1-0.2
				c0,0,0,0,0,0c0,0,0,0,0,0l0,0c0,0,0,0,0,0c0,0,0,0,0,0c1.8,0.9,2.5,3,1.7,4.8c-0.6,1.3-1.9,2-3.2,2c-0.5,0-1.1-0.1-1.6-0.4
				c0,0,0,0,0,0c0,0,0,0,0,0l0,0c0,0,0,0,0,0c0,0,0,0,0,0c1.6,1.1,2.1,3.3,1,5c-0.7,1-1.8,1.6-3,1.6c-0.7,0-1.4-0.2-2-0.6
				c0,0,0,0,0,0c0,0,0,0,0,0l0,0c0,0,0,0,0,0c0,0,0,0,0,0c1.5,1.3,1.6,3.6,0.3,5.1c-0.7,0.8-1.7,1.2-2.7,1.2c-0.9,0-1.7-0.3-2.4-0.9
				c0,0,0,0,0,0c0,0,0,0,0,0c0,0,0,0,0,0c0,0,0,0,0,0c0,0,0,0,0,0c1.3,1.5,1.1,3.8-0.4,5.1c-0.7,0.6-1.5,0.8-2.3,0.8
				c-1,0-2-0.4-2.8-1.3c0,0,0,0,0,0c0,0,0,0,0,0l0,0c0,0,0,0,0,0c0,0,0,0,0,0c1.1,1.7,0.5,3.9-1.1,5c-0.6,0.4-1.3,0.5-1.9,0.5
				c-1.2,0-2.4-0.6-3.1-1.7c0,0,0,0,0,0c0,0,0,0,0,0h0c0,0,0,0,0,0c0,0,0,0,0,0c0.8,1.8,0,3.9-1.8,4.8c-0.5,0.2-1,0.3-1.5,0.3
				c-1.4,0-2.7-0.8-3.3-2.1c0,0,0,0,0,0c0.5,1.9-0.6,3.9-2.5,4.4c-0.3,0.1-0.7,0.1-1,0.1c-1.6,0-3-1-3.5-2.6c0,0,0,0,0,0
				c0,0,0,0,0,0h0c0,0,0,0,0,0c0,0,0,0,0,0c0.3,2-1.1,3.8-3.1,4.1c-0.2,0-0.3,0-0.5,0c-1.8,0-3.3-1.3-3.6-3.1c0,0,0,0,0,0
				c0,0,0,0,0,0l0,0c0,0,0,0,0,0c0,0,0,0,0,0c0,2-1.6,3.6-3.6,3.6s-3.6-1.6-3.6-3.6c0,0,0,0,0,0c0,0,0,0,0,0l0,0c0,0,0,0,0,0
				c0,0,0,0,0,0c-0.3,1.8-1.8,3.1-3.6,3.1c-0.2,0-0.3,0-0.5,0c-2-0.3-3.3-2.1-3.1-4.1c0,0,0,0,0,0c0,0,0,0,0,0h0c0,0,0,0,0,0
				c0,0,0,0,0,0c-0.5,1.6-1.9,2.6-3.5,2.6c-0.3,0-0.7,0-1-0.1c-1.9-0.5-3-2.5-2.5-4.4c0,0,0,0,0,0c-0.6,1.3-1.9,2.1-3.3,2.1
				c-0.5,0-1-0.1-1.5-0.3c-1.8-0.8-2.6-2.9-1.8-4.8c0,0,0,0,0,0c0,0,0,0,0,0h0c0,0,0,0,0,0c0,0,0,0,0,0c-0.7,1.1-1.9,1.7-3.1,1.7
				c-0.7,0-1.3-0.2-1.9-0.5c-1.7-1.1-2.2-3.3-1.1-5c0,0,0,0,0,0c0,0,0,0,0,0l0,0c0,0,0,0,0,0c0,0,0,0,0,0c-0.7,0.8-1.7,1.3-2.8,1.3
				c-0.8,0-1.6-0.3-2.3-0.8c-1.5-1.3-1.7-3.5-0.4-5.1c0,0,0,0,0,0c0,0,0,0,0,0l0,0c0,0,0,0,0,0c0,0,0,0,0,0
				c-0.7,0.6-1.5,0.9-2.4,0.9c-1,0-2-0.4-2.7-1.2c-1.3-1.5-1.2-3.8,0.3-5.1c0,0,0,0,0,0c0,0,0,0,0,0l0,0c0,0,0,0,0,0c0,0,0,0,0,0
				c-0.6,0.4-1.3,0.6-2,0.6c-1.2,0-2.3-0.6-3-1.6c-1.1-1.6-0.7-3.9,1-5c0,0,0,0,0,0c0,0,0,0,0,0l0,0c0,0,0,0,0,0c0,0,0,0,0,0
				c-0.5,0.2-1,0.4-1.6,0.4c-1.3,0-2.6-0.7-3.2-2c-0.9-1.8-0.1-3.9,1.7-4.8c0,0,0,0,0,0c0,0,0,0,0,0l0,0c0,0,0,0,0,0c0,0,0,0,0,0
				c-0.4,0.1-0.7,0.2-1.1,0.2c-1.5,0-2.9-1-3.4-2.5c-0.6-1.9,0.4-3.9,2.3-4.5c0,0,0,0,0,0c0,0,0,0,0,0h0c0,0,0,0,0,0c0,0,0,0,0,0
				C6.3,69,6,69,5.8,69c-1.7,0-3.2-1.2-3.5-3c-0.3-2,1-3.8,2.9-4.2c0,0,0,0,0,0c0,0,0,0,0,0v0c0,0,0,0,0,0c0,0,0,0,0,0
				c0,0-0.1,0-0.1,0c-1.9,0-3.5-1.5-3.6-3.5c-0.1-2,1.5-3.7,3.5-3.7c0,0,0,0,0,0c0,0,0,0,0,0c0,0,0,0,0,0c0,0,0,0,0,0l0,0
				c0,0,0,0,0,0c0,0,0,0,0,0c0,0,0,0,0,0c0,0,0,0,0,0c-2-0.2-3.4-2-3.2-4c0.2-1.8,1.8-3.2,3.6-3.2c0.1,0,0.3,0,0.4,0c0,0,0,0,0,0
				c0,0,0,0,0,0l0,0c0,0,0,0,0,0c0,0,0,0,0,0C3.8,47,2.6,45,3.1,43.1c0.4-1.6,1.9-2.7,3.5-2.7c0.3,0,0.6,0,0.9,0.1c0,0,0,0,0,0
				c0,0,0,0,0,0l0,0c0,0,0,0,0,0c0,0,0,0,0,0c-1.8-0.7-2.7-2.8-2-4.7c0.6-1.4,1.9-2.3,3.3-2.3c0.4,0,0.9,0.1,1.3,0.3
				c-1.7-1-2.3-3.2-1.3-4.9c0.7-1.2,1.9-1.8,3.1-1.8c0.6,0,1.2,0.2,1.8,0.5l0,0h0l0,0c-1.6-1.2-1.8-3.5-0.6-5.1
				c0.7-0.9,1.8-1.4,2.8-1.4c0.8,0,1.6,0.2,2.2,0.8c0,0,0,0,0,0c0,0,0,0,0,0l0,0c0,0,0,0,0,0c0,0,0,0,0,0c-1.4-1.4-1.3-3.7,0.1-5.1
				c0.7-0.7,1.6-1,2.5-1c0.9,0,1.9,0.4,2.6,1.1c0,0,0,0,0,0c0,0,0,0,0,0c0,0,0,0,0,0c0,0,0,0,0,0c0,0,0,0,0,0
				c-1.2-1.6-0.8-3.9,0.8-5c0.6-0.5,1.4-0.7,2.1-0.7c1.1,0,2.2,0.5,2.9,1.5c0,0,0,0,0,0c0,0,0,0,0,0c0,0,0,0,0,0c0,0,0,0,0,0
				c0,0,0,0,0,0c-0.9-1.8-0.3-3.9,1.5-4.9c0.5-0.3,1.1-0.4,1.7-0.4c1.3,0,2.5,0.7,3.2,1.9c0,0,0,0,0,0c0,0,0,0,0,0c0,0,0,0,0,0
				c0,0,0,0,0,0c0,0,0,0,0,0c-0.7-1.9,0.3-3.9,2.1-4.6c0.4-0.1,0.8-0.2,1.2-0.2c1.5,0,2.8,0.9,3.4,2.4c0,0,0,0,0,0c0,0,0,0,0,0l0,0
				c0,0,0,0,0,0c0,0,0,0,0,0c-0.4-1.9,0.8-3.9,2.8-4.3c0.3-0.1,0.5-0.1,0.8-0.1c1.7,0,3.2,1.2,3.5,2.9c0,0,0,0,0,0c0,0,0,0,0,0l0,0
				c0,0,0,0,0,0c0,0,0,0,0,0c-0.1-2,1.4-3.7,3.3-3.8c0.1,0,0.2,0,0.3,0c1.9,0,3.5,1.5,3.6,3.3c0,0,0,0,0,0c0,0,0,0,0,0h0h0
				c0,0,0,0,0,0c0,0,0,0,0,0C56.6,3,58.2,1.5,60.1,1.5 M60.1,0c-1.4,0-2.7,0.6-3.6,1.5C55.6,0.6,54.3,0,52.9,0h0c-0.1,0-0.2,0-0.4,0
				c-1.5,0.1-2.8,0.9-3.7,2c-0.9-0.6-1.9-1-3-1c-0.4,0-0.7,0-1.1,0.1c-1.5,0.3-2.7,1.3-3.4,2.5C40.6,3.2,39.8,3,38.9,3
				c-0.6,0-1.2,0.1-1.7,0.3c-1.4,0.5-2.5,1.6-3,2.9C33.6,6,33,5.9,32.3,5.9c-0.8,0-1.7,0.2-2.4,0.6c-1.3,0.7-2.2,2-2.6,3.3
				c-0.4-0.1-0.7-0.1-1.1-0.1c-1.1,0-2.1,0.3-3,1c-1.2,0.9-1.9,2.2-2.1,3.7c-0.1,0-0.3,0-0.4,0c-1.3,0-2.6,0.5-3.5,1.4
				c-1.1,1.1-1.6,2.5-1.5,3.9c-1.5,0.1-2.8,0.8-3.7,2c-0.9,1.2-1.3,2.7-1,4.1c-1.4,0.3-2.7,1.2-3.4,2.5c-0.8,1.3-0.9,2.8-0.4,4.2
				c-1.4,0.5-2.5,1.5-3,2.9c-0.6,1.4-0.5,2.9,0.2,4.2C3,40.1,2,41.3,1.6,42.8c-0.4,1.5,0,3,0.8,4.1c-1.2,0.8-2,2.1-2.1,3.6
				c-0.2,1.5,0.4,3,1.3,4c-1,1-1.7,2.4-1.6,3.9c0.1,1.5,0.8,2.9,1.9,3.8c-0.9,1.1-1.3,2.6-1,4.1C1.1,67.8,2,69,3.2,69.7
				c-0.7,1.2-0.9,2.7-0.5,4.2c0.5,1.4,1.5,2.5,2.8,3.1C5,78.3,5,79.9,5.7,81.2c0.7,1.4,1.8,2.3,3.2,2.7c-0.4,1.4-0.2,2.9,0.7,4.1
				c0.8,1.2,2.1,2,3.6,2.2c-0.2,1.4,0.3,2.9,1.3,4c1,1.1,2.3,1.7,3.8,1.7c0,0,0,0,0.1,0c0,1.4,0.6,2.8,1.8,3.8
				c0.9,0.8,2.1,1.2,3.3,1.2c0.3,0,0.5,0,0.8-0.1c0.2,1.4,1,2.7,2.3,3.5c0.8,0.5,1.7,0.8,2.7,0.8c0.5,0,1-0.1,1.5-0.2
				c0.4,1.4,1.4,2.5,2.8,3.1c0.7,0.3,1.4,0.4,2.1,0.4c0.8,0,1.5-0.2,2.1-0.5c0.6,1.3,1.7,2.3,3.2,2.7c0.5,0.1,0.9,0.2,1.4,0.2
				c1,0,2-0.3,2.8-0.8c0.8,1.2,2,2,3.6,2.3c0.2,0,0.5,0.1,0.7,0.1c1.3,0,2.4-0.5,3.3-1.2c0.9,1.1,2.3,1.7,3.8,1.7s2.9-0.7,3.8-1.7
				c0.9,0.8,2.1,1.2,3.3,1.2c0.2,0,0.5,0,0.7-0.1c1.5-0.2,2.8-1.1,3.6-2.3c0.8,0.5,1.8,0.8,2.8,0.8c0.5,0,0.9-0.1,1.4-0.2
				c1.5-0.4,2.6-1.4,3.2-2.7c0.7,0.3,1.4,0.5,2.1,0.5c0.7,0,1.4-0.1,2.1-0.4c1.4-0.6,2.4-1.8,2.8-3.1c0.5,0.1,1,0.2,1.5,0.2
				c1,0,1.9-0.3,2.7-0.8c1.3-0.8,2.1-2.1,2.3-3.5c0.3,0,0.5,0.1,0.8,0.1c1.2,0,2.4-0.4,3.3-1.2c1.2-1,1.8-2.4,1.8-3.8c0,0,0,0,0.1,0
				c1.4,0,2.8-0.6,3.8-1.7c1-1.1,1.4-2.6,1.3-4c1.4-0.2,2.8-1,3.6-2.2c0.9-1.3,1.1-2.8,0.7-4.1c1.4-0.4,2.6-1.3,3.2-2.7
				c0.7-1.4,0.7-2.9,0.1-4.2c1.3-0.6,2.4-1.7,2.8-3.1c0.5-1.4,0.3-3-0.5-4.2c1.2-0.7,2.1-2,2.4-3.5c0.3-1.5-0.2-3-1-4.1
				c1.1-0.9,1.8-2.2,1.9-3.8c0.1-1.5-0.6-2.9-1.6-3.9c1-1,1.5-2.5,1.3-4c-0.2-1.5-1-2.8-2.1-3.6c0.8-1.2,1.1-2.7,0.8-4.1
				c-0.4-1.5-1.3-2.6-2.6-3.3c0.6-1.3,0.7-2.8,0.2-4.2c-0.6-1.4-1.7-2.4-3-2.9c0.5-1.3,0.4-2.9-0.4-4.2c-0.7-1.3-2-2.2-3.4-2.5
				c0.3-1.4,0-2.9-1-4.1c-0.9-1.2-2.3-1.9-3.7-2c0.1-1.4-0.5-2.9-1.5-3.9c-1-0.9-2.2-1.4-3.5-1.4c-0.1,0-0.3,0-0.4,0
				c-0.1-1.4-0.8-2.8-2.1-3.7c-0.9-0.6-1.9-1-3-1c-0.4,0-0.8,0-1.1,0.1c-0.3-1.4-1.2-2.6-2.6-3.3c-0.7-0.4-1.6-0.6-2.4-0.6
				c-0.6,0-1.2,0.1-1.8,0.3c-0.5-1.3-1.6-2.4-3-2.9C75.3,3.1,74.7,3,74.1,3c-0.9,0-1.7,0.2-2.5,0.6c-0.7-1.2-1.9-2.2-3.4-2.5
				C67.9,1,67.5,1,67.2,1c-1.1,0-2.2,0.4-3,1c-0.9-1.1-2.2-1.9-3.7-2C60.3,0,60.2,0,60.1,0L60.1,0z"/>
		</g>
	</g>
	<path class="st2" d="M110.7,53l-27-27.3L56.5,99.8l9.9,9.9c0.6-0.7,0.9-1.7,0.8-2.8c0,0,0,0,0,0h0c0,0,0,0,0,0
		c0.5,1.9,2.5,3,4.4,2.5c1.9-0.5,3-2.5,2.5-4.4c0,0,0,0,0,0c0.8,1.8,2.9,2.6,4.7,1.8c1.8-0.8,2.6-2.9,1.8-4.8c0,0,0,0,0,0h0
		c0,0,0,0,0,0c1.1,1.7,3.3,2.2,5,1.1c1.7-1.1,2.2-3.3,1.1-5c0,0,0,0,0,0l0,0c0,0,0,0,0,0c1.3,1.5,3.5,1.7,5.1,0.4
		c1.5-1.3,1.7-3.5,0.4-5.1c0,0,0,0,0,0c0,0,0,0,0,0c0,0,0,0,0,0c1.5,1.3,3.8,1.2,5.1-0.3c1.3-1.5,1.2-3.8-0.3-5.1c0,0,0,0,0,0l0,0
		c0,0,0,0,0,0c1.6,1.1,3.9,0.7,5-1c1.1-1.6,0.7-3.9-1-5c0,0,0,0,0,0l0,0c0,0,0,0,0,0c1.8,0.9,3.9,0.1,4.8-1.7
		c0.9-1.8,0.1-3.9-1.7-4.8c0,0,0,0,0,0l0,0c0,0,0,0,0,0c1.9,0.6,3.9-0.4,4.5-2.3c0.6-1.9-0.4-3.9-2.3-4.5c0,0,0,0,0,0l0,0l0,0
		c2,0.3,3.8-1,4.2-2.9c0.3-2-1-3.8-2.9-4.2c0,0,0,0,0,0v0c0,0,0,0,0,0c2,0.1,3.7-1.5,3.7-3.5c0.1-2-1.5-3.7-3.5-3.7c0,0,0,0,0,0l0,0
		c0,0,0,0,0,0C109.2,54.5,110.1,53.9,110.7,53z"/>
	<g>
		<path class="st3" d="M78.5,84.2l-22,15.1l-22-15.1c-4.6-3.1-7.3-8.1-7.3-13.4V30.7c0-3,2.5-5.4,5.7-5.6l23.6-1.3l23.6,1.3
			c3.2,0.2,5.7,2.6,5.7,5.6v40.1C85.8,76,83.1,81,78.5,84.2z"/>
		<g>
			<path class="st4" d="M84.2,65.3c-9.2,0.9-18.5,1.4-27.7,1.4S38,66.3,28.8,65.3l-1.6-0.2v5.6c0,5.3,2.7,10.3,7.3,13.4l22,15.1
				l22-15.1c4.6-3.1,7.3-8.1,7.3-13.4v-5.6L84.2,65.3z"/>
			<path class="st4" d="M80.1,25.1l-23.6-1.3l-23.6,1.3c-3.2,0.2-5.7,2.6-5.7,5.6v14.1l1.6,0.2c9.2,0.9,18.5,1.4,27.7,1.4
				S75,45.9,84.2,45l1.6-0.2V30.7C85.8,27.7,83.3,25.3,80.1,25.1z"/>
			<path class="st5" d="M84.2,45c-9.2,0.9-18.5,1.4-27.7,1.4S38,45.9,28.8,45l-1.6-0.2v20.4l1.6,0.2c9.2,0.9,18.5,1.4,27.7,1.4
				s18.5-0.5,27.7-1.4l1.6-0.2V44.8L84.2,45z"/>
			<g>
				<path class="st1" d="M44.3,52.8L44.3,52.8l-1.6,0.9l-0.2-0.9l2-1.1h1v9.1h-1.2V52.8z"/>
				<path class="st1" d="M54.9,56.1c0,3.1-1.1,4.8-3.2,4.8c-1.8,0-3-1.7-3-4.7c0-3.1,1.3-4.7,3.2-4.7C53.8,51.5,54.9,53.2,54.9,56.1
					z M49.9,56.2c0,2.4,0.7,3.7,1.8,3.7c1.3,0,1.9-1.5,1.9-3.8c0-2.2-0.6-3.7-1.8-3.7C50.7,52.4,49.9,53.8,49.9,56.2z"/>
				<path class="st1" d="M62,56.1c0,3.1-1.1,4.8-3.2,4.8c-1.8,0-3-1.7-3-4.7c0-3.1,1.3-4.7,3.2-4.7C61,51.5,62,53.2,62,56.1z
					 M57.1,56.2c0,2.4,0.7,3.7,1.8,3.7c1.3,0,1.9-1.5,1.9-3.8c0-2.2-0.6-3.7-1.8-3.7C57.9,52.4,57.1,53.8,57.1,56.2z"/>
				<path class="st1" d="M67.3,54.2c0,1.9-1,2.9-2.2,2.9c-1.1,0-2.1-0.9-2.1-2.7c0-1.8,1-2.8,2.2-2.8C66.4,51.5,67.3,52.5,67.3,54.2
					z M64,54.3c0,1.2,0.4,2,1.2,2c0.8,0,1.2-0.9,1.2-2.1c0-1.1-0.3-2-1.2-2C64.4,52.2,64,53.1,64,54.3z M65,60.9l5.4-9.4h0.8
					l-5.4,9.4H65z M73.2,58c0,1.9-1,2.9-2.2,2.9c-1.1,0-2.1-0.9-2.1-2.7c0-1.8,1-2.9,2.2-2.9C72.4,55.3,73.2,56.2,73.2,58z
					 M69.9,58.1c0,1.2,0.4,2,1.2,2c0.8,0,1.2-0.9,1.2-2.1c0-1.1-0.3-2-1.2-2C70.3,56,69.9,56.9,69.9,58.1z"/>
			</g>
			<g class="st6">
				<path d="M85.8,30.7v40.1c0,5.3-2.7,10.3-7.3,13.4l-22,15.1V23.8l23.6,1.3C83.3,25.3,85.8,27.7,85.8,30.7z"/>
			</g>
		</g>
	</g>
</g>
</svg>
