<?xml version="1.0" encoding="utf-8"?>
<!-- Generator: Adobe Illustrator 19.0.1, SVG Export Plug-In . SVG Version: 6.00 Build 0)  -->
<svg version="1.1" id="Слой_1" xmlns="http://www.w3.org/2000/svg" xmlns:xlink="http://www.w3.org/1999/xlink" x="0px" y="0px"
	 viewBox="-943 2444 113 113" style="enable-background:new -943 2444 113 113;" xml:space="preserve">
<style type="text/css">
	.st0{fill:#29ABE2;}
	.st1{fill:#FFFFFF;}
	.st2{opacity:0.18;enable-background:new    ;}
	.st3{fill:#FF9797;stroke:#FFFFFF;stroke-miterlimit:10;}
	.st4{enable-background:new    ;}
</style>
<g id="Слой_1_1_">
	<g>
		<g>
			<path class="st0" d="M-886.5,2556.2c-1.6,0-3-0.9-3.8-2.2c-0.8,1-2,1.7-3.4,1.7c-0.2,0-0.4,0-0.6,0c-1.6-0.2-2.8-1.3-3.4-2.7
				c-0.8,0.8-1.9,1.2-3,1.2c-0.4,0-0.8-0.1-1.2-0.2c-1.5-0.4-2.6-1.7-3-3.1c-0.7,0.5-1.6,0.8-2.5,0.8c-0.6,0-1.2-0.1-1.8-0.4
				c-1.5-0.6-2.4-2-2.6-3.5c-0.6,0.3-1.3,0.5-2,0.5c-0.8,0-1.6-0.2-2.3-0.7c-1.4-0.8-2.1-2.3-2-3.8c-0.5,0.2-1,0.3-1.5,0.3
				c-1,0-2-0.4-2.8-1c-1.2-1-1.7-2.6-1.5-4.1c-0.3,0.1-0.6,0.1-0.9,0.1c-1.2,0-2.4-0.5-3.2-1.4c-1.1-1.2-1.4-2.8-0.9-4.2
				c-0.1,0-0.2,0-0.3,0c-1.4,0-2.8-0.7-3.6-1.9c-0.9-1.3-1-3-0.3-4.3c-1.5-0.1-2.9-1-3.6-2.4c-0.7-1.4-0.5-3.1,0.3-4.3
				c-1.5-0.3-2.7-1.4-3.2-2.9s-0.1-3.1,0.9-4.2c-1.4-0.5-2.5-1.8-2.8-3.3c-0.2-1.6,0.4-3.2,1.5-4.1c-1.3-0.7-2.2-2.1-2.3-3.7
				c-0.1-1.6,0.8-3,2-3.8c-1.2-0.9-1.9-2.4-1.7-4c0.2-1.6,1.2-2.9,2.5-3.5c-1.1-1-1.6-2.6-1.2-4.2c0.4-1.5,1.5-2.7,3-3.1
				c-0.9-1.2-1.2-2.8-0.6-4.3c0.6-1.5,1.9-2.5,3.4-2.7c-0.7-1.3-0.8-2.9,0-4.3c0.8-1.3,2.2-2.2,3.7-2.2c-0.5-1.4-0.4-3,0.6-4.3
				c0.8-1.1,2.1-1.7,3.4-1.7c0.2,0,0.4,0,0.6,0c-0.3-1.5,0.1-3,1.2-4.2c0.8-0.8,1.9-1.2,3-1.2c0.4,0,0.8,0.1,1.2,0.2
				c-0.1-1.5,0.5-3,1.8-3.9c0.7-0.5,1.6-0.8,2.6-0.8c0.6,0,1.2,0.1,1.7,0.4c0.1-1.5,0.9-2.9,2.3-3.7c0.6-0.3,1.3-0.5,2-0.5
				c0.8,0,1.6,0.2,2.3,0.6c0.3-1.5,1.3-2.8,2.8-3.3c0.5-0.2,1-0.3,1.5-0.3c1,0,2,0.4,2.8,1c0.5-1.4,1.7-2.6,3.2-2.9
				c0.3-0.1,0.6-0.1,0.9-0.1c1.2,0,2.4,0.5,3.2,1.4c0.7-1.3,2-2.3,3.6-2.4c0.1,0,0.2,0,0.3,0c1.5,0,2.8,0.8,3.6,1.9
				c0.8-1.1,2.1-1.9,3.6-1.9c0.1,0,0.2,0,0.3,0c1.7,0.3,3,1.2,3.7,2.6c0.8-0.9,2-1.4,3.2-1.4c0.3,0,0.6,0,0.9,0.1
				c1.6,0.3,2.8,1.5,3.2,2.9c0.8-0.6,1.7-1,2.8-1c0.5,0,1,0.1,1.5,0.3c1.5,0.5,2.5,1.8,2.8,3.3c0.7-0.4,1.5-0.6,2.3-0.6
				c0.7,0,1.4,0.2,2,0.5c1.4,0.8,2.2,2.2,2.3,3.7c0.5-0.2,1.1-0.4,1.7-0.4c0.9,0,1.8,0.3,2.6,0.8c1.3,0.9,1.9,2.5,1.8,3.9
				c0.4-0.1,0.8-0.2,1.2-0.2c1.1,0,2.2,0.4,3,1.2c1.1,1.1,1.6,2.7,1.2,4.2c0.2,0,0.4,0,0.6,0c1.3,0,2.6,0.6,3.4,1.7
				c1,1.3,1.2,2.9,0.6,4.3c1.5,0,3,0.8,3.7,2.2c0.8,1.4,0.7,3,0,4.3c1.5,0.2,2.8,1.2,3.4,2.7c0.6,1.5,0.3,3.1-0.6,4.3
				c1.5,0.4,2.6,1.6,3,3.1c0.4,1.5-0.1,3.1-1.2,4.2c1.4,0.6,2.4,1.9,2.5,3.5c0.2,1.6-0.5,3.1-1.7,4c1.3,0.8,2.1,2.2,2,3.8
				c-0.1,1.6-1,3-2.3,3.7c1.1,1,1.7,2.5,1.5,4.1c-0.3,1.6-1.4,2.8-2.8,3.3c1,1.1,1.4,2.7,0.9,4.2s-1.7,2.6-3.2,2.9
				c0.8,1.2,1,2.9,0.3,4.3c-0.7,1.4-2,2.3-3.6,2.4c0.6,1.3,0.6,3-0.3,4.3c-0.8,1.2-2.2,1.9-3.6,1.9c-0.1,0-0.2,0-0.3,0
				c0.4,1.4,0.2,3-0.9,4.2c-0.8,0.9-2,1.4-3.2,1.4c-0.3,0-0.6,0-0.9-0.1c0.2,1.5-0.3,3-1.5,4.1c-0.8,0.7-1.8,1-2.8,1
				c-0.5,0-1-0.1-1.5-0.3c0,1.5-0.7,3-2,3.8c-0.7,0.4-1.5,0.7-2.3,0.7c-0.7,0-1.4-0.2-2-0.5c-0.2,1.5-1.1,2.8-2.6,3.5
				c-0.6,0.3-1.2,0.4-1.8,0.4c-0.9,0-1.8-0.3-2.5-0.8c-0.4,1.4-1.5,2.7-3,3.1c-0.4,0.1-0.8,0.2-1.2,0.2c-1.1,0-2.2-0.5-3-1.2
				c-0.1,0.3-0.3,0.7-0.6,1c-0.7,0.9-1.7,1.5-2.9,1.7c-0.2,0-0.4,0-0.6,0c-1.4,0-2.6-0.6-3.4-1.7
				C-883.5,2555.4-884.9,2556.2-886.5,2556.2z"/>
			<g>
				<path class="st1" d="M-882.9,2445.5c0.1,0,0.2,0,0.3,0c2,0.1,3.5,1.9,3.3,3.8l0,0l0,0l0,0l0,0l0,0c0.4-1.7,1.9-2.9,3.5-2.9
					c0.2,0,0.5,0,0.8,0.1c1.9,0.4,3.2,2.3,2.8,4.3l0,0l0,0l0,0l0,0l0,0c0.5-1.5,1.9-2.4,3.4-2.4c0.4,0,0.8,0.1,1.2,0.2
					c1.9,0.7,2.8,2.7,2.1,4.6l0,0l0,0l0,0l0,0l0,0c0.6-1.2,1.9-1.9,3.2-1.9c0.6,0,1.1,0.1,1.7,0.4c1.8,0.9,2.4,3.1,1.5,4.9l0,0l0,0
					l0,0l0,0l0,0c0.7-1,1.8-1.5,2.9-1.5c0.7,0,1.5,0.2,2.1,0.7c1.6,1.2,2,3.4,0.8,5l0,0l0,0l0,0l0,0l0,0c0.7-0.7,1.6-1.1,2.6-1.1
					c0.9,0,1.8,0.3,2.5,1c1.4,1.4,1.5,3.7,0.1,5.1l0,0l0,0l0,0l0,0l0,0c0.7-0.5,1.4-0.8,2.2-0.8c1.1,0,2.1,0.5,2.8,1.4
					c1.2,1.6,0.9,3.8-0.6,5.1l0,0l0,0l0,0c0.6-0.3,1.2-0.5,1.8-0.5c1.2,0,2.5,0.6,3.1,1.8c1,1.7,0.4,3.9-1.3,4.9
					c0.4-0.2,0.9-0.3,1.3-0.3c1.4,0,2.8,0.9,3.3,2.3c0.7,1.8-0.1,3.9-2,4.7l0,0l0,0l0,0l0,0l0,0c0.3-0.1,0.6-0.1,0.9-0.1
					c1.6,0,3.1,1.1,3.5,2.7c0.5,1.9-0.7,3.9-2.6,4.4l0,0l0,0l0,0l0,0l0,0c0.1,0,0.3,0,0.4,0c1.8,0,3.4,1.4,3.6,3.2
					c0.2,2-1.2,3.7-3.2,4l0,0l0,0l0,0l0,0l0,0l0,0l0,0l0,0l0,0c2,0.1,3.5,1.7,3.5,3.7c-0.1,1.9-1.7,3.5-3.6,3.5h-0.1l0,0l0,0l0,0
					l0,0l0,0c2,0.3,3.3,2.2,2.9,4.2c-0.3,1.7-1.8,3-3.5,3c-0.2,0-0.4,0-0.6-0.1l0,0l0,0l0,0l0,0l0,0c1.9,0.6,2.9,2.6,2.3,4.5
					c-0.5,1.5-1.9,2.5-3.4,2.5c-0.4,0-0.7-0.1-1.1-0.2l0,0l0,0l0,0l0,0l0,0c1.8,0.9,2.5,3,1.7,4.8c-0.6,1.3-1.9,2-3.2,2
					c-0.5,0-1.1-0.1-1.6-0.4l0,0l0,0l0,0l0,0l0,0c1.6,1.1,2.1,3.3,1,5c-0.7,1-1.8,1.6-3,1.6c-0.7,0-1.4-0.2-2-0.6l0,0l0,0l0,0l0,0
					l0,0c1.5,1.3,1.6,3.6,0.3,5.1c-0.7,0.8-1.7,1.2-2.7,1.2c-0.9,0-1.7-0.3-2.4-0.9l0,0l0,0l0,0l0,0l0,0c1.3,1.5,1.1,3.8-0.4,5.1
					c-0.7,0.6-1.5,0.8-2.3,0.8c-1,0-2-0.4-2.8-1.3l0,0l0,0l0,0l0,0l0,0c1.1,1.7,0.5,3.9-1.1,5c-0.6,0.4-1.3,0.5-1.9,0.5
					c-1.2,0-2.4-0.6-3.1-1.7l0,0l0,0l0,0l0,0l0,0c0.8,1.8,0,3.9-1.8,4.8c-0.5,0.2-1,0.3-1.5,0.3c-1.4,0-2.7-0.8-3.3-2.1l0,0
					c0.5,1.9-0.6,3.9-2.5,4.4c-0.3,0.1-0.7,0.1-1,0.1c-1.6,0-3-1-3.5-2.6l0,0l0,0l0,0l0,0l0,0c0.3,2-1.1,3.8-3.1,4.1
					c-0.2,0-0.3,0-0.5,0c-1.8,0-3.3-1.3-3.6-3.1l0,0l0,0l0,0l0,0l0,0c0,2-1.6,3.6-3.6,3.6s-3.6-1.6-3.6-3.6l0,0l0,0l0,0l0,0l0,0
					c-0.3,1.8-1.8,3.1-3.6,3.1c-0.2,0-0.3,0-0.5,0c-2-0.3-3.3-2.1-3.1-4.1l0,0l0,0l0,0l0,0l0,0c-0.5,1.6-1.9,2.6-3.5,2.6
					c-0.3,0-0.7,0-1-0.1c-1.9-0.5-3-2.5-2.5-4.4l0,0c-0.6,1.3-1.9,2.1-3.3,2.1c-0.5,0-1-0.1-1.5-0.3c-1.8-0.8-2.6-2.9-1.8-4.8l0,0
					l0,0l0,0l0,0l0,0c-0.7,1.1-1.9,1.7-3.1,1.7c-0.7,0-1.3-0.2-1.9-0.5c-1.7-1.1-2.2-3.3-1.1-5l0,0l0,0l0,0l0,0l0,0
					c-0.7,0.8-1.7,1.3-2.8,1.3c-0.8,0-1.6-0.3-2.3-0.8c-1.5-1.3-1.7-3.5-0.4-5.1l0,0l0,0l0,0l0,0l0,0c-0.7,0.6-1.5,0.9-2.4,0.9
					c-1,0-2-0.4-2.7-1.2c-1.3-1.5-1.2-3.8,0.3-5.1l0,0l0,0l0,0l0,0l0,0c-0.6,0.4-1.3,0.6-2,0.6c-1.2,0-2.3-0.6-3-1.6
					c-1.1-1.6-0.7-3.9,1-5l0,0l0,0l0,0l0,0l0,0c-0.5,0.2-1,0.4-1.6,0.4c-1.3,0-2.6-0.7-3.2-2c-0.9-1.8-0.1-3.9,1.7-4.8l0,0l0,0l0,0
					l0,0l0,0c-0.4,0.1-0.7,0.2-1.1,0.2c-1.5,0-2.9-1-3.4-2.5c-0.6-1.9,0.4-3.9,2.3-4.5l0,0l0,0l0,0c-0.2,0.1-0.5,0.1-0.7,0.1
					c-1.7,0-3.2-1.2-3.5-3c-0.3-2,1-3.8,2.9-4.2l0,0l0,0l0,0l0,0l0,0h-0.1c-1.9,0-3.5-1.5-3.6-3.5s1.5-3.7,3.5-3.7l0,0l0,0l0,0l0,0
					l0,0l0,0l0,0l0,0l0,0c-2-0.2-3.4-2-3.2-4c0.2-1.8,1.8-3.2,3.6-3.2c0.1,0,0.3,0,0.4,0l0,0l0,0l0,0l0,0l0,0
					c-2-0.4-3.2-2.4-2.7-4.3c0.4-1.6,1.9-2.7,3.5-2.7c0.3,0,0.6,0,0.9,0.1l0,0l0,0l0,0l0,0l0,0c-1.8-0.7-2.7-2.8-2-4.7
					c0.6-1.4,1.9-2.3,3.3-2.3c0.4,0,0.9,0.1,1.3,0.3c-1.7-1-2.3-3.2-1.3-4.9c0.7-1.2,1.9-1.8,3.1-1.8c0.6,0,1.2,0.2,1.8,0.5l0,0l0,0
					l0,0c-1.6-1.2-1.8-3.5-0.6-5.1c0.7-0.9,1.8-1.4,2.8-1.4c0.8,0,1.6,0.2,2.2,0.8l0,0l0,0l0,0l0,0l0,0c-1.4-1.4-1.3-3.7,0.1-5.1
					c0.7-0.7,1.6-1,2.5-1c0.9,0,1.9,0.4,2.6,1.1l0,0l0,0l0,0l0,0l0,0c-1.2-1.6-0.8-3.9,0.8-5c0.6-0.5,1.4-0.7,2.1-0.7
					c1.1,0,2.2,0.5,2.9,1.5l0,0l0,0l0,0l0,0l0,0c-0.9-1.8-0.3-3.9,1.5-4.9c0.5-0.3,1.1-0.4,1.7-0.4c1.3,0,2.5,0.7,3.2,1.9l0,0l0,0
					l0,0l0,0l0,0c-0.7-1.9,0.3-3.9,2.1-4.6c0.4-0.1,0.8-0.2,1.2-0.2c1.5,0,2.8,0.9,3.4,2.4l0,0l0,0l0,0l0,0l0,0
					c-0.4-1.9,0.8-3.9,2.8-4.3c0.3-0.1,0.5-0.1,0.8-0.1c1.7,0,3.2,1.2,3.5,2.9l0,0l0,0l0,0l0,0l0,0c-0.1-2,1.4-3.7,3.3-3.8
					c0.1,0,0.2,0,0.3,0c1.9,0,3.5,1.5,3.6,3.3l0,0l0,0l0,0l0,0l0,0l0,0C-886.4,2447-884.8,2445.5-882.9,2445.5 M-882.9,2444
					c-1.4,0-2.7,0.6-3.6,1.5c-0.9-0.9-2.2-1.5-3.6-1.5l0,0c-0.1,0-0.2,0-0.4,0c-1.5,0.1-2.8,0.9-3.7,2c-0.9-0.6-1.9-1-3-1
					c-0.4,0-0.7,0-1.1,0.1c-1.5,0.3-2.7,1.3-3.4,2.5c-0.7-0.4-1.5-0.6-2.4-0.6c-0.6,0-1.2,0.1-1.7,0.3c-1.4,0.5-2.5,1.6-3,2.9
					c-0.6-0.2-1.2-0.3-1.9-0.3c-0.8,0-1.7,0.2-2.4,0.6c-1.3,0.7-2.2,2-2.6,3.3c-0.4-0.1-0.7-0.1-1.1-0.1c-1.1,0-2.1,0.3-3,1
					c-1.2,0.9-1.9,2.2-2.1,3.7c-0.1,0-0.3,0-0.4,0c-1.3,0-2.6,0.5-3.5,1.4c-1.1,1.1-1.6,2.5-1.5,3.9c-1.5,0.1-2.8,0.8-3.7,2
					s-1.3,2.7-1,4.1c-1.4,0.3-2.7,1.2-3.4,2.5c-0.8,1.3-0.9,2.8-0.4,4.2c-1.4,0.5-2.5,1.5-3,2.9c-0.6,1.4-0.5,2.9,0.2,4.2
					c-1.4,0.5-2.4,1.7-2.8,3.2c-0.4,1.5,0,3,0.8,4.1c-1.2,0.8-2,2.1-2.1,3.6c-0.2,1.5,0.4,3,1.3,4c-1,1-1.7,2.4-1.6,3.9
					s0.8,2.9,1.9,3.8c-0.9,1.1-1.3,2.6-1,4.1c0.2,1.5,1.1,2.7,2.3,3.4c-0.7,1.2-0.9,2.7-0.5,4.2c0.5,1.4,1.5,2.5,2.8,3.1
					c-0.5,1.3-0.5,2.9,0.2,4.2c0.7,1.4,1.8,2.3,3.2,2.7c-0.4,1.4-0.2,2.9,0.7,4.1c0.8,1.2,2.1,2,3.6,2.2c-0.2,1.4,0.3,2.9,1.3,4
					c1,1.1,2.3,1.7,3.8,1.7c0,0,0,0,0.1,0c0,1.4,0.6,2.8,1.8,3.8c0.9,0.8,2.1,1.2,3.3,1.2c0.3,0,0.5,0,0.8-0.1
					c0.2,1.4,1,2.7,2.3,3.5c0.8,0.5,1.7,0.8,2.7,0.8c0.5,0,1-0.1,1.5-0.2c0.4,1.4,1.4,2.5,2.8,3.1c0.7,0.3,1.4,0.4,2.1,0.4
					c0.8,0,1.5-0.2,2.1-0.5c0.6,1.3,1.7,2.3,3.2,2.7c0.5,0.1,0.9,0.2,1.4,0.2c1,0,2-0.3,2.8-0.8c0.8,1.2,2,2,3.6,2.3
					c0.2,0,0.5,0.1,0.7,0.1c1.3,0,2.4-0.5,3.3-1.2c0.9,1.1,2.3,1.7,3.8,1.7s2.9-0.7,3.8-1.7c0.9,0.8,2.1,1.2,3.3,1.2
					c0.2,0,0.5,0,0.7-0.1c1.5-0.2,2.8-1.1,3.6-2.3c0.8,0.5,1.8,0.8,2.8,0.8c0.5,0,0.9-0.1,1.4-0.2c1.5-0.4,2.6-1.4,3.2-2.7
					c0.7,0.3,1.4,0.5,2.1,0.5s1.4-0.1,2.1-0.4c1.4-0.6,2.4-1.8,2.8-3.1c0.5,0.1,1,0.2,1.5,0.2c1,0,1.9-0.3,2.7-0.8
					c1.3-0.8,2.1-2.1,2.3-3.5c0.3,0,0.5,0.1,0.8,0.1c1.2,0,2.4-0.4,3.3-1.2c1.2-1,1.8-2.4,1.8-3.8c0,0,0,0,0.1,0
					c1.4,0,2.8-0.6,3.8-1.7c1-1.1,1.4-2.6,1.3-4c1.4-0.2,2.8-1,3.6-2.2c0.9-1.3,1.1-2.8,0.7-4.1c1.4-0.4,2.6-1.3,3.2-2.7
					c0.7-1.4,0.7-2.9,0.1-4.2c1.3-0.6,2.4-1.7,2.8-3.1c0.5-1.4,0.3-3-0.5-4.2c1.2-0.7,2.1-2,2.4-3.5s-0.2-3-1-4.1
					c1.1-0.9,1.8-2.2,1.9-3.8c0.1-1.5-0.6-2.9-1.6-3.9c1-1,1.5-2.5,1.3-4c-0.2-1.5-1-2.8-2.1-3.6c0.8-1.2,1.1-2.7,0.8-4.1
					c-0.4-1.5-1.3-2.6-2.6-3.3c0.6-1.3,0.7-2.8,0.2-4.2c-0.6-1.4-1.7-2.4-3-2.9c0.5-1.3,0.4-2.9-0.4-4.2c-0.7-1.3-2-2.2-3.4-2.5
					c0.3-1.4,0-2.9-1-4.1c-0.9-1.2-2.3-1.9-3.7-2c0.1-1.4-0.5-2.9-1.5-3.9c-1-0.9-2.2-1.4-3.5-1.4c-0.1,0-0.3,0-0.4,0
					c-0.1-1.4-0.8-2.8-2.1-3.7c-0.9-0.6-1.9-1-3-1c-0.4,0-0.8,0-1.1,0.1c-0.3-1.4-1.2-2.6-2.6-3.3c-0.7-0.4-1.6-0.6-2.4-0.6
					c-0.6,0-1.2,0.1-1.8,0.3c-0.5-1.3-1.6-2.4-3-2.9c-1,0-1.6-0.1-2.2-0.1c-0.9,0-1.7,0.2-2.5,0.6c-0.7-1.2-1.9-2.2-3.4-2.5
					c-0.3-0.1-0.7-0.1-1-0.1c-1.1,0-2.2,0.4-3,1c-0.9-1.1-2.2-1.9-3.7-2C-882.7,2444-882.8,2444-882.9,2444L-882.9,2444z"/>
			</g>
		</g>
		<g>
			<path class="st2" d="M-837.1,2524.6c0.9-1.8,0.1-3.9-1.7-4.8l0,0l0,0l0,0c1.9,0.6,3.9-0.4,4.5-2.3c0.6-1.9-0.4-3.9-2.3-4.5l0,0
				l0,0l0,0c2,0.3,3.8-1,4.2-2.9c0.3-2-1-3.8-2.9-4.2l0,0l0,0l0,0c2,0.1,3.7-1.5,3.7-3.5c0-0.8-0.2-1.5-0.6-2.1l-1-1
				c-0.5-0.4-1.2-0.6-1.9-0.6l0,0l0,0l0,0c0.4,0,0.7-0.1,1-0.3l-30.9-31h-28.7l-19,66.1l20.9,20.9c0.8-0.5,1.4-1.4,1.6-2.5l0,0l0,0
				l0,0c0,2,1.6,3.6,3.6,3.6s3.6-1.6,3.6-3.6l0,0l0,0l0,0c0.3,2,2.1,3.3,4.1,3.1c2-0.3,3.3-2.1,3.1-4.1l0,0l0,0l0,0
				c0.5,1.9,2.5,3,4.4,2.5c1.9-0.5,3-2.5,2.5-4.4l0,0c0.8,1.8,2.9,2.6,4.7,1.8s2.6-2.9,1.8-4.8l0,0l0,0l0,0c1.1,1.7,3.3,2.2,5,1.1
				c1.7-1.1,2.2-3.3,1.1-5l0,0l0,0l0,0c1.3,1.5,3.5,1.7,5.1,0.4c1.5-1.3,1.7-3.5,0.4-5.1l0,0l0,0l0,0c1.5,1.3,3.8,1.2,5.1-0.3
				s1.2-3.8-0.3-5.1l0,0l0,0l0,0c1.6,1.1,3.9,0.7,5-1c1.1-1.6,0.7-3.9-1-5l0,0l0,0l0,0C-840.1,2527.1-838,2526.4-837.1,2524.6z"/>
			<path class="st3" d="M-864.9,2467.4H-885h-20l-7.6,9.3v43.6v13.1h55.3v-13.1v-43.6L-864.9,2467.4z M-885,2479.9
				c-2.5,0-4.6-2.1-4.6-4.6s2.1-4.6,4.6-4.6s4.6,2.1,4.6,4.6C-880.4,2477.9-882.4,2479.9-885,2479.9z"/>
			<g class="st4">
				<path class="st1" d="M-885.4,2523.4v-3.5c-1.8-0.2-3.2-0.6-4.3-1.2c-1.1-0.6-2.1-1.5-2.9-2.8c-0.8-1.3-1.3-2.8-1.4-4.7l3.6-0.7
					c0.3,1.9,0.8,3.3,1.5,4.2c1,1.3,2.2,2,3.6,2.1v-11.3c-1.5-0.3-2.9-0.8-4.5-1.7c-1.1-0.6-2-1.5-2.6-2.6c-0.6-1.1-0.9-2.4-0.9-3.8
					c0-2.5,0.9-4.6,2.7-6.1c1.2-1,3-1.7,5.3-1.9v-1.7h2.1v1.7c2.1,0.2,3.7,0.8,4.9,1.8c1.5,1.3,2.5,3.1,2.8,5.3l-3.7,0.6
					c-0.2-1.4-0.6-2.5-1.3-3.2c-0.7-0.7-1.6-1.2-2.7-1.5v10.2c1.8,0.4,3,0.8,3.5,1c1.1,0.5,2,1.1,2.7,1.8c0.7,0.7,1.2,1.5,1.6,2.5
					s0.6,2,0.6,3.1c0,2.5-0.8,4.5-2.3,6.1s-3.6,2.5-6.1,2.6v3.6H-885.4z M-885.4,2492.4c-1.4,0.2-2.5,0.8-3.3,1.7
					c-0.8,0.9-1.2,1.9-1.2,3.2c0,1.2,0.3,2.2,1,3c0.7,0.8,1.8,1.5,3.4,1.9V2492.4z M-883.3,2516.9c1.4-0.2,2.5-0.8,3.4-1.8
					c0.9-1,1.3-2.3,1.3-3.8c0-1.3-0.3-2.3-1-3.1c-0.6-0.8-1.9-1.5-3.8-2.1V2516.9z"/>
			</g>
		</g>
	</g>
</g>
</svg>
