<?xml version="1.0" encoding="utf-8"?>
<!-- Generator: Adobe Illustrator 19.0.1, SVG Export Plug-In . SVG Version: 6.00 Build 0)  -->
<svg version="1.1" id="Слой_1" xmlns="http://www.w3.org/2000/svg" xmlns:xlink="http://www.w3.org/1999/xlink" x="0px" y="0px"
	 viewBox="-936 2437.3 126.7 126.7" style="enable-background:new -936 2437.3 126.7 126.7;" xml:space="preserve">
<style type="text/css">
	.st0{fill:#29ABE2;stroke:#FFFFFF;stroke-width:1.5;stroke-miterlimit:10;}
	.st1{opacity:0.2;enable-background:new    ;}
	.st2{fill:#FF9797;}
	.st3{fill:#FF9797;stroke:#FFFFFF;stroke-miterlimit:10;}
	.st4{fill:none;stroke:#F9F3FF;stroke-width:2;stroke-miterlimit:10;}
</style>
<g>
	<circle class="st0" cx="-872.6" cy="2500.7" r="62.5"/>
	<path class="st1" d="M-891.6,2523l38.4,38.4c22.4-7.3,39.3-26.9,42.7-50.8l-36-37L-891.6,2523z"/>
	<g>
		<g>
			
				<rect x="-875.9" y="2501.4" transform="matrix(-0.7071 0.7071 -0.7071 -0.7071 279.6372 4887.9731)" class="st2" width="6.7" height="1"/>
			
				<rect x="-873.5" y="2498" transform="matrix(-0.7071 -0.7071 0.7071 -0.7071 -3258.5493 3654.0088)" class="st3" width="2" height="7.7"/>
		</g>
		<g>
			<path class="st3" d="M-893.7,2519.3l16.1-16.1c0.4-0.4,1.2-0.4,1.6,0l2.1,2.1c0.4,0.4,0.4,1.2,0,1.6L-890,2523
				c-0.4,0.4-1.2,0.4-1.6,0l-2.1-2.1C-894.1,2520.5-894.1,2519.8-893.7,2519.3z"/>
		</g>
		<path class="st4" d="M-868.6,2500.1"/>
		<path class="st4" d="M-868.6,2473.2"/>
		<circle class="st0" cx="-858.8" cy="2486.7" r="16.6"/>
	</g>
</g>
</svg>
